<?xml version="1.0" encoding="UTF-8" standalone="no"?>
<!-- Created with Inkscape (http://www.inkscape.org/) -->

<svg
   width="210mm"
   height="297mm"
   viewBox="0 0 210 297"
   version="1.1"
   id="svg1"
   inkscape:version="1.4.2 (f4327f4, 2025-05-13)"
   sodipodi:docname="Coin.svg"
   xmlns:inkscape="http://www.inkscape.org/namespaces/inkscape"
   xmlns:sodipodi="http://sodipodi.sourceforge.net/DTD/sodipodi-0.dtd"
   xmlns="http://www.w3.org/2000/svg"
   xmlns:svg="http://www.w3.org/2000/svg">
  <sodipodi:namedview
     id="namedview1"
     pagecolor="#ffffff"
     bordercolor="#000000"
     borderopacity="0.25"
     inkscape:showpageshadow="2"
     inkscape:pageopacity="0.0"
     inkscape:pagecheckerboard="0"
     inkscape:deskcolor="#d1d1d1"
     inkscape:document-units="mm"
     inkscape:zoom="0.72604517"
     inkscape:cx="396.66953"
     inkscape:cy="561.25984"
     inkscape:window-width="1920"
     inkscape:window-height="1017"
     inkscape:window-x="1072"
     inkscape:window-y="841"
     inkscape:window-maximized="1"
     inkscape:current-layer="layer1" />
  <defs
     id="defs1">
    <pattern
       id="EMFhbasepattern"
       patternUnits="userSpaceOnUse"
       width="6"
       height="6"
       x="0"
       y="0" />
  </defs>
  <g
     inkscape:label="Слой 1"
     inkscape:groupmode="layer"
     id="layer1">
    <path
       style="fill:#6B7FE8;stroke:none"
       d="m 53.06,104.04 -3.7,5.56 -1.32,3.18 c -0.13,2.58 -1.6,5.34 -2.08,7.94 -0.97,5.23 -1.2,12.27 0.13,17.46 0.89,3.46 4.07,8.51 0.9,11.64 0.03,3.13 -0.95,6.36 -1.05,9.53 -0.15,4.73 0.99,10.25 2.96,14.55 2.67,5.8 7.45,11.24 13.16,14.19 2.71,1.4 6.24,1.79 8.73,3.46 3.76,2.51 6.42,6.57 10.32,9.11 12.34,8.06 27.54,10.39 41.81,6.63 6.41,-1.69 12.85,-4.94 17.99,-9.12 2.58,-2.1 4.57,-5.42 7.41,-7.11 1.76,-1.05 4.17,-1.17 6.09,-1.93 3.92,-1.55 7.78,-4.38 10.53,-7.55 1.89,-2.19 3.79,-4.77 4.99,-7.41 0.79,-1.74 1.11,-4.38 2.21,-5.82 l 1.03,-12.17 -1.56,-7.67 c -1.93,-2.44 -0.3,-9.77 1.32,-12.17 l 0.25,-8.2 -1.05,-8.2 c -1.45,-1.79 -1.24,-5.21 -2.41,-7.38 -4.7,-8.73 -9.32,-16.08 -17.65,-21.89 -2.2,-1.54 -6.01,-4.49 -8.78,-4.33 l 0.26,-0.53 -0.79,-0.26 c -6.75,-0.5 -11.15,-3.94 -15.88,-8.47 -2.44,-0.38 -4.67,-2.35 -7.15,-3.01 -7.66,-2.04 -16.01,-2 -23.55,0.6 -3.28,1.13 -6.39,3.16 -8.99,5.43 -1.87,1.64 -2.97,3.52 -5.56,4.09 -8.85,1.93 -15.93,5.52 -22.54,11.83 -1.83,1.75 -5.8,5.43 -6.04,8.05 M 119.74,84.46 v 0.79 l -10.31,4.43 -3.71,-1.56 -7.15,-2.87 c 0.99,-1.9 3.87,-2.39 5.84,-2.68 5.26,-0.75 10.46,-0.43 15.32,1.88 m -14.55,14.55 c 0.8,0.99 2.54,2.89 3.92,2.9 1.39,0.01 3.27,-2.25 4.39,-3.01 2.87,-1.94 6.14,-3.38 9.41,-4.48 1.47,-0.49 3.71,-1.6 5.24,-0.83 1.05,0.53 1.34,1.98 1.79,2.96 1.47,3.16 2.01,6.98 2.56,10.4 0.42,2.59 1.38,6.01 0.2,8.47 l -1.85,-1.06 c -1.13,-0.03 -3.39,-0.84 -3.97,-1.85 -2.86,0.2 -6.84,-1.7 -9.79,-2.18 -5.47,-0.89 -10.76,-0.26 -16.14,0.74 -3.75,0.69 -8.43,1.97 -11.11,4.89 l -2.65,2.65 -1.85,0.79 c -0.68,-5.35 -0.01,-12.18 1.13,-17.46 0.32,-1.47 0.87,-4.32 2.04,-5.29 l -0.26,-0.53 1.88,-2.59 3.94,0.52 11.11,4.99 m -36.52,26.2 -2.38,0.79 v 0.53 c -4.54,0.79 -6.53,6.73 -10.85,7.67 l 0.1,-11.11 1.22,-5.82 h 0.53 l 0.53,-2.38 h 0.53 l 0.53,-1.06 -0.26,-0.53 c 1.73,-1.73 2.95,-4.52 4.44,-6.54 2.17,-2.92 5.05,-5.49 7.99,-7.6 1.51,-1.08 3.4,-2.67 5.29,-2.8 v -0.53 c 2.6,0.21 1.22,3.33 0.89,5.3 -0.72,4.31 -1.31,8.85 -1.42,13.23 -0.04,1.8 0.46,5.53 -0.39,7.07 -1.05,1.91 -5.11,2.19 -6.76,3.78 m 94.2,8.73 -11.31,-9.2 -5.09,-3.24 -3.18,-1.06 c -2.36,-5.53 -0.69,-12.66 -1.75,-18.52 -0.16,-0.89 -1.85,-5.51 -0.77,-5.89 0.84,-0.3 2.11,0.68 2.78,1.08 2.37,1.42 4.54,3.15 6.61,4.96 6.42,5.61 11.7,14.48 12.71,23.02 0.35,2.93 0.97,5.96 -0,8.84 m -38.9,-11.11 6.35,7.14 c -0.25,1.25 1.47,2.7 1.85,4.23 0.99,3.94 1.57,8.54 0.53,12.7 -0.3,1.21 -0.4,2.78 -1.06,2.91 l 0.26,0.79 c -0.94,1.06 -1.1,2.5 -1.77,3.73 -1.07,1.95 -2.49,3.84 -3.95,5.52 -4.46,5.14 -11.66,7.75 -18.36,7.11 -2.63,-0.25 -5.17,-1.64 -7.67,-1.81 -4.12,-4.17 -12.39,-7.35 -12.97,-14.29 -1.04,-0.83 -1.17,-2.73 -1.54,-3.97 -1.11,-3.67 -1.34,-9.34 -0.01,-12.97 0.38,-1.04 0.67,-2.48 1.55,-3.18 0.31,-2.5 3.21,-5.24 5.03,-6.8 6.77,-5.8 15.67,-6.72 24.08,-4.61 2.71,0.68 5.08,2.99 7.67,3.47 m 21.7,-1.59 0.26,0.26 -0.26,-0.26 m -1.59,10.58 2.38,1.32 c 3.78,4.12 12.01,7.39 12.7,13.76 l -6.46,7.33 -5.71,4.58 -2.12,0.53 c 0.24,0.71 -0.26,1.82 -0.26,2.65 0,0.93 0.57,2.27 0.79,3.18 0.44,1.77 -0.53,3.55 -0.53,5.03 0,3.15 -0.44,8.2 -2.38,11.11 -0.56,0.83 -1.92,0.88 -2.91,0.79 -2.75,-0.23 -6.35,-0.38 -8.2,-1.06 -1.04,-0.38 -2.84,-1.24 -2.91,-1.59 l -3.7,-1.06 v -0.53 l -0.53,0.26 v -0.53 l -0.53,0.26 -1.59,-0.79 -0.26,-0.79 c -1.35,-0.19 -2.32,-1.05 -2.65,-2.38 6.17,-2.56 11.64,-6.14 15.89,-11.37 1.34,-1.65 3.47,-4.19 3.69,-6.35 h 0.53 l 2.6,-9 -0.48,-15.88 2.65,0.53 m -68.8,1.32 0.6,11.64 1.78,8.47 c 1.62,1.36 2.66,5 3.89,6.88 2.83,4.31 6.58,8.26 10.93,11.06 0.97,0.63 6.16,2.88 5.89,4.03 -0.26,1.11 -1.83,1.6 -2.72,2.06 -2.33,1.2 -5.74,2.06 -7.67,3.76 l -0.79,-0.26 c -0.89,1.02 -3.69,1.03 -5.03,1.21 -1.37,0.19 -3.98,0.86 -5.23,0.11 -1.18,-0.71 -1.74,-3.69 -2.1,-4.95 -0.69,-2.38 -1.43,-5.53 -1.37,-8.01 0.07,-2.92 0.93,-6.67 -0.19,-9.49 -0.42,-1.07 -1.81,-1.58 -2.71,-2.17 -1.81,-1.19 -3.75,-2.48 -5.33,-3.98 -1.79,-1.7 -3.36,-3.69 -4.7,-5.75 -0.59,-0.91 -1.32,-2.09 -0.34,-2.96 l -0.26,-0.53 c 4.73,-3.36 8.81,-10.81 15.35,-11.11 m -10.58,44.72 c -1.76,-0.5 -3.17,-2.48 -4.25,-3.89 -3.16,-4.15 -6.33,-10.86 -4.75,-16.22 l 5.07,4.62 3.05,2.8 0.25,3.43 0.63,9.26 m 98.7,-19.85 c 0.39,2.65 0.16,8.5 -2.12,10.32 -0.27,3.98 -4.47,6.86 -6.62,9.79 -2.02,-0.67 -0.61,-4.46 -0.52,-6.09 0.11,-2.09 -0.57,-5.49 0.81,-7.28 1,-1.29 2.99,-2.19 4.21,-3.33 1.34,-1.25 2.4,-2.92 4.23,-3.42 m -30.43,33.08 -1.32,1.85 -3.44,1.32 c -1.31,2.16 -5.92,2.77 -8.2,3.45 -7.88,2.36 -14.6,2.11 -22.5,-0.17 -2.68,-0.77 -5.22,-2.53 -7.93,-3.02 l -3.97,-2.65 v -0.53 c 5.45,-2.34 10.97,-3.34 16.14,-6.56 1.79,-1.11 5.09,-4.65 7.15,-4.65 2.21,-0 5.99,3.72 7.94,4.86 5.05,2.96 10.42,4.91 16.14,6.09 z"
       id="path1" />
  </g>
</svg>
